<svg width="0" height="0" class="hidden" xmlns="http://www.w3.org/2000/svg">
 
<!-- Home -->

  <symbol fill="none" xmlns="http://www.w3.org/2000/svg" viewBox="0 0 428 428" id="innovation">
    <path d="M199.348 384.806L306.015 176.806H231.348V43.4731L124.682 251.473H199.348V384.806ZM214.282 427.473C184.77 427.473 157.037 421.873 131.082 410.673C105.126 399.473 82.5482 384.273 63.3482 365.073C44.1482 345.873 28.9482 323.295 17.7482 297.34C6.54824 271.384 0.948242 243.651 0.948242 214.14C0.948242 184.629 6.54824 156.895 17.7482 130.94C28.9482 104.984 44.1482 82.4064 63.3482 63.2064C82.5482 44.0064 105.126 28.8064 131.082 17.6064C157.037 6.40643 184.77 0.806427 214.282 0.806427C243.793 0.806427 271.526 6.40643 297.482 17.6064C323.437 28.8064 346.015 44.0064 365.215 63.2064C384.415 82.4064 399.615 104.984 410.815 130.94C422.015 156.895 427.615 184.629 427.615 214.14C427.615 243.651 422.015 271.384 410.815 297.34C399.615 323.295 384.415 345.873 365.215 365.073C346.015 384.273 323.437 399.473 297.482 410.673C271.526 421.873 243.793 427.473 214.282 427.473Z" fill="#050505"></path>
  </symbol>




  
  <symbol fill="none" xmlns="http://www.w3.org/2000/svg" viewBox="0 0 214 121" id="leftTop">
    <g clip-path="url(#clip0_1_12)">
      <path d="M0 0H190V73C190 86.2548 179.255 97 166 97H0V0Z" fill="#E7E7E9"></path>
      <path fill-rule="evenodd" clip-rule="evenodd" d="M24 97H0V121C0 107.745 10.7452 97 24 97Z" fill="#E7E7E9"></path>
    </g>
    <path fill-rule="evenodd" clip-rule="evenodd" d="M214 0H190V24C190 10.7452 200.745 0 214 0Z" fill="#E7E7E9"></path>
    <defs>
      <clipPath id="clip0_1_12">
        <rect width="190" height="121" fill="white"></rect>
      </clipPath>
    </defs>
  </symbol>
 

  <symbol xmlns="http://www.w3.org/2000/svg" viewBox="0 0 24 24" id="investments">
    <path fill="#050505" d="M5 20v-6h3v6zm6 0V9h3v11zm6 0V4h3v16z"></path>
  </symbol>
   
  <symbol xmlns="http://www.w3.org/2000/svg" viewBox="0 0 24 24" id="experts">
    <path fill="#050505" d="M12 2C6.48 2 2 6.48 2 12c0 1.33.26 2.61.74 3.77L8 10.5l3.3 2.78L14.58 10H13V8h5v5h-2v-1.58L11.41 16l-3.29-2.79l-4.4 4.4A10 10 0 0 0 12 22h8c1.1 0 2-.9 2-2v-8c0-5.52-4.48-10-10-10m7.5 18.5c-.55 0-1-.45-1-1s.45-1 1-1s1 .45 1 1s-.45 1-1 1"></path>
  </symbol>

  <symbol xmlns="http://www.w3.org/2000/svg" viewBox="0 0 24 24" id="realtime">
    <path fill="#050505" d="M11.99 2C6.47 2 2 6.48 2 12s4.47 10 9.99 10C17.52 22 22 17.52 22 12S17.52 2 11.99 2m3.3 14.71L11 12.41V7h2v4.59l3.71 3.71z"></path>
  </symbol> 

  <!-- About -->

    <svg width="0" height="0" class="hidden">
    <symbol xmlns="http://www.w3.org/2000/svg" viewBox="0 0 24 24" id="company">
      <path fill="#050505" d="M5 21q-.825 0-1.412-.587T3 19V5q0-.825.588-1.412T5 3h14q.825 0 1.413.588T21 5v14q0 .825-.587 1.413T19 21zM19 7.25l-6.05 6.8L9 10.1l-4 4v2.85l4-4L13.05 17L19 10.25z"></path>
    </symbol>
  </svg>

  <!-- Services -->

  <symbol xmlns="http://www.w3.org/2000/svg" viewBox="0 0 24 24" id="identify">
    <path fill="#050505" d="M15.5 14h-.79l-.28-.27A6.47 6.47 0 0 0 16 9.5A6.5 6.5 0 1 0 9.5 16c1.61 0 3.09-.59 4.23-1.57l.27.28v.79l5 4.99L20.49 19zm-6 0C7.01 14 5 11.99 5 9.5S7.01 5 9.5 5S14 7.01 14 9.5S11.99 14 9.5 14"></path>
    <path fill="#050505" d="M12 10h-2v2H9v-2H7V9h2V7h1v2h2z"></path>
  </symbol>

  <symbol fill="none" xmlns="http://www.w3.org/2000/svg" viewBox="0 0 425 426" id="invest">
    <path d="M212.282 307.006L118.415 213.14L212.282 119.273L306.148 213.14L212.282 307.006ZM242.148 413.14C238.237 417.051 233.615 420.073 228.282 422.206C222.948 424.34 217.615 425.406 212.282 425.406C206.948 425.406 201.615 424.34 196.282 422.206C190.948 420.073 186.326 417.051 182.415 413.14L12.2818 243.006C8.37069 239.095 5.34847 234.473 3.21514 229.14C1.0818 223.806 0.0151367 218.473 0.0151367 213.14C0.0151367 207.806 1.0818 202.473 3.21514 197.14C5.34847 191.806 8.37069 187.184 12.2818 183.273L181.882 13.6731C186.148 9.40644 190.86 6.20644 196.015 4.07311C201.171 1.93977 206.593 0.873108 212.282 0.873108C217.971 0.873108 223.393 1.93977 228.548 4.07311C233.704 6.20644 238.415 9.40644 242.682 13.6731L412.282 183.273C416.193 187.184 419.215 191.806 421.348 197.14C423.482 202.473 424.548 207.806 424.548 213.14C424.548 218.473 423.482 223.806 421.348 229.14C419.215 234.473 416.193 239.095 412.282 243.006L242.148 413.14ZM212.282 366.74L365.882 213.14L212.282 59.5398L58.6818 213.14L212.282 366.74Z" fill="#050505"></path>
  </symbol>

  <!-- Blog -->
  <symbol xmlns="http://www.w3.org/2000/svg" viewBox="0 0 24 24" id="articles">
    <path fill="#050505" d="M12 .64L8.23 3H5v2L2.97 6.29C2.39 6.64 2 7.27 2 8v10a2 2 0 0 0 2 2h16c1.11 0 2-.89 2-2V8c0-.73-.39-1.36-.97-1.71L19 5V3h-3.23M7 5h10v4.88L12 13L7 9.88M8 6v1.5h8V6M5 7.38v1.25L4 8m15-.62L20 8l-1 .63M8 8.5V10h8V8.5Z"></path>
  </symbol> 

  <!-- Contacts -->
 
  <symbol xmlns="http://www.w3.org/2000/svg" viewBox="0 0 24 24" id="contacts">
    <path fill="#050505" d="M12 2C6.5 2 2 6.5 2 12s4.5 10 10 10s10-4.5 10-10S17.5 2 12 2M8.43 14.44l-1.36-.61c.28-.56.43-1.16.43-1.78c0-.66-.15-1.29-.43-1.88l1.36-.61Q9 10.775 9 12.05c0 .75-.19 1.55-.57 2.39m3.1 1.5l-1.31-.65c.53-1.13.78-2.29.78-3.43c0-1.13-.25-2.17-.78-3.15l1.31-.75c.66 1.16.97 2.46.97 3.9c0 1.47-.31 2.83-.97 4.08m3.15 1.41l-1.37-.7c.79-1.54 1.19-3.08 1.19-4.65s-.4-3.13-1.19-4.69l1.37-.66C15.55 8.43 16 10.22 16 12c0 1.82-.45 3.6-1.32 5.35"></path>
  </symbol> 
 
</svg>