<svg width="0" height="0" class="hidden" xmlns="http://www.w3.org/2000/svg">

 <!-- General -->

  <symbol xmlns="http://www.w3.org/2000/svg" viewBox="0 0 24 24" id="timeWhite">
    <path fill="whitesmoke" d="M11.99 2C6.47 2 2 6.48 2 12s4.47 10 9.99 10C17.52 22 22 17.52 22 12S17.52 2 11.99 2M16 16a.996.996 0 0 1-1.41 0l-3.29-3.29A1 1 0 0 1 11 12V8c0-.55.45-1 1-1s1 .45 1 1v3.59l3 3c.39.39.39 1.02 0 1.41"></path>
  </symbol>

  <symbol xmlns="http://www.w3.org/2000/svg" viewBox="0 0 24 24" id="timeBlack">
    <path fill="#050505" d="M11.99 2C6.47 2 2 6.48 2 12s4.47 10 9.99 10C17.52 22 22 17.52 22 12S17.52 2 11.99 2m3.3 14.71L11 12.41V7h2v4.59l3.71 3.71z"></path>
  </symbol>

  <symbol xmlns="http://www.w3.org/2000/svg" viewBox="-1.5 0 19 19" id="arrowHorizontal">
    <path d="m14.734 10.305-4.516 4.516a1.03 1.03 0 0 1-1.455-1.455l2.76-2.76h-9.53a1.03 1.03 0 1 1 0-2.058h9.53l-2.76-2.76a1.03 1.03 0 0 1 1.455-1.455l4.516 4.517a1.029 1.029 0 0 1 0 1.455z"></path>
  </symbol>

<!-- Home -->

  <symbol fill="none" xmlns="http://www.w3.org/2000/svg" viewBox="0 0 129 129" id="spinner">
    <path d="M112.101 36.614L38.4889 79.114" stroke="#000000" stroke-width="1.55"></path>
    <rect x="9.20066" y="9.20063" width="110.45" height="110.45" rx="55.225" stroke="#000000" stroke-width="1.55"></rect>
    <path d="M102.945 65.8975L111.132 66.758L110.969 68.3094L104.13 67.5907L103.699 71.6961L102.35 71.5544L102.945 65.8975Z" fill="#000000"></path>
    <path d="M95.2231 87.3572L101.341 92.8654L97.0448 97.6364L96.0549 96.7452L99.3069 93.1335L97.7998 91.7765L94.9011 94.9958L93.9113 94.1045L96.81 90.8852L95.1691 89.4078L91.8689 93.0729L90.8791 92.1817L95.2231 87.3572Z" fill="#000000"></path>
    <path d="M76.6583 100.61L75.2358 109.328L73.3108 109.737L68.4536 102.354L70.1086 102.002L71.1184 103.578L74.8041 102.795L75.0854 100.944L76.6583 100.61ZM74.5973 104.188L71.8859 104.765L73.1598 106.776C73.2078 106.848 73.2677 106.937 73.3396 107.044C73.4053 107.161 73.4766 107.285 73.5535 107.416C73.6321 107.555 73.7106 107.693 73.7892 107.832C73.8677 107.971 73.939 108.095 74.0031 108.204L74.0618 108.191C74.0755 108.025 74.0959 107.832 74.1231 107.614C74.1425 107.397 74.1643 107.192 74.1887 106.999C74.213 106.806 74.2339 106.654 74.2514 106.544L74.5973 104.188Z" fill="#000000"></path>
    <path d="M52.4617 100.357L49.1135 107.877L45.156 106.115C44.6006 105.868 44.1824 105.568 43.9016 105.215C43.6208 104.863 43.4671 104.47 43.4406 104.038C43.4141 103.606 43.5066 103.152 43.7181 102.677C43.9361 102.188 44.2393 101.802 44.6278 101.519C45.013 101.244 45.4598 101.106 45.9683 101.105L45.7636 97.3749L47.3203 98.068L47.457 101.478L49.792 102.518L51.0366 99.7226L52.4617 100.357ZM49.26 103.713L46.8372 102.634C46.4718 102.472 46.1433 102.452 45.8516 102.576C45.5599 102.701 45.3311 102.949 45.1651 103.322C45.0578 103.563 45.0121 103.783 45.0282 103.983C45.0411 104.19 45.1121 104.375 45.2411 104.538C45.3701 104.7 45.5589 104.837 45.8074 104.947L48.2301 106.026L49.26 103.713Z" fill="#000000"></path>
    <path d="M33.519 86.0705L26.3899 90.1865L25.6459 88.8979L28.0968 83.4229C28.1183 83.3643 28.1532 83.2887 28.2014 83.1962C28.2427 83.1077 28.286 83.0227 28.3313 82.9411C28.3766 82.8595 28.416 82.7998 28.4496 82.762L28.4196 82.71C28.3226 82.766 28.229 82.82 28.139 82.872C28.0489 82.924 27.9588 82.976 27.8688 83.028L23.6599 85.458L22.9099 84.159L30.039 80.043L30.777 81.3212L28.3009 86.8246C28.2498 86.928 28.1874 87.0518 28.1136 87.196C28.0289 87.3373 27.9703 87.4358 27.9378 87.4915L27.9678 87.5435C28.0578 87.4915 28.1514 87.4375 28.2484 87.3815C28.3384 87.3295 28.432 87.2755 28.5289 87.2195L32.769 84.7715L33.519 86.0705Z" fill="#000000"></path>
    <path d="M26.5802 64.144L18.3933 63.2835L18.6505 60.837L23.3448 60.0272C23.5089 59.9962 23.693 59.9673 23.8969 59.9405C24.1008 59.9137 24.2964 59.89 24.4835 59.8694C24.6716 59.8409 24.8344 59.8218 24.9722 59.8122L24.9822 59.7167C24.8646 59.6882 24.7199 59.6489 24.5482 59.5987C24.3765 59.5485 24.1933 59.493 23.9986 59.4323C23.7967 59.3628 23.6033 59.2902 23.4182 59.2145L19.0067 57.4477L19.2613 55.025L27.4482 55.8855L27.2852 57.4369L23.144 57.0017C22.778 56.9632 22.4124 56.9208 22.0473 56.8743C21.6821 56.8279 21.3687 56.7869 21.107 56.7514C20.8461 56.7079 20.6918 56.6836 20.644 56.6786L20.634 56.7741C20.7039 56.7975 20.8549 56.8536 21.0869 56.9423C21.3189 57.0311 21.5704 57.1259 21.8413 57.2267C22.1122 57.3276 22.3442 57.4164 22.5373 57.493L27.0857 59.3345L26.9352 60.7666L22.1152 61.6235C21.9431 61.6536 21.7384 61.6884 21.5009 61.7278C21.2564 61.7584 21.0075 61.7926 20.7541 61.8303C20.5016 61.8601 20.2814 61.8892 20.0934 61.9177L20.0834 62.0132C20.299 62.0278 20.5584 62.0471 20.8616 62.0709C21.1568 62.0939 21.46 62.1177 21.7711 62.1423C22.0743 62.1662 22.3492 62.191 22.5958 62.217L26.737 62.6522L26.5802 64.144Z" fill="#000000"></path>
    <path d="M36.8079 38.6752C36.2351 39.3113 35.627 39.7595 34.9836 40.0199C34.3342 40.2748 33.6622 40.3157 32.9677 40.1425C32.2786 39.9634 31.5773 39.5526 30.8639 38.9102C30.1445 38.2625 29.6627 37.608 29.4185 36.9467C29.1736 36.2741 29.147 35.6043 29.3386 34.9371C29.5243 34.2646 29.9035 33.6103 30.4763 32.9742C31.0544 32.3321 31.6655 31.8866 32.3096 31.6376C32.953 31.3773 33.6193 31.3367 34.3085 31.5158C34.997 31.6837 35.701 32.0914 36.4203 32.7392C37.1338 33.3815 37.6129 34.039 37.8577 34.7116C38.1079 35.3782 38.1402 36.0478 37.9545 36.7203C37.7682 37.3815 37.386 38.0331 36.8079 38.6752ZM35.827 37.7919C36.1053 37.4828 36.3043 37.1721 36.4239 36.86C36.5488 36.5419 36.5974 36.225 36.5695 35.9092C36.5357 35.5881 36.4284 35.2708 36.2477 34.9574C36.0611 34.6386 35.7983 34.3267 35.4594 34.0216L35.2632 33.8449C34.9184 33.5344 34.5777 33.3031 34.2412 33.1508C33.9047 32.9985 33.5779 32.9249 33.261 32.9302C32.9381 32.9302 32.625 33.0089 32.3217 33.1664C32.0238 33.318 31.7356 33.5483 31.4573 33.8575C31.1789 34.1666 30.9773 34.4802 30.8523 34.7983C30.7327 35.1105 30.6898 35.4271 30.7237 35.7482C30.7515 36.064 30.8588 36.3813 31.0454 36.7C31.2374 37.0128 31.5058 37.3245 31.8507 37.635L32.0469 37.8116C32.3857 38.1167 32.7208 38.3484 33.0519 38.5067C33.3825 38.6536 33.7093 38.7271 34.0321 38.7272C34.3491 38.7219 34.6565 38.6435 34.9545 38.4919C35.2578 38.3344 35.5486 38.1011 35.827 37.7919Z" fill="#000000"></path>
    <path d="M53.6194 27.6765L51.9079 19.6244L56.1452 18.7238C56.7399 18.5973 57.2545 18.5943 57.689 18.7146C58.1235 18.8349 58.4785 19.062 58.754 19.396C59.0295 19.7301 59.2213 20.1514 59.3294 20.66C59.4408 21.1843 59.4224 21.6749 59.2741 22.1317C59.1242 22.5807 58.8439 22.9551 58.4333 23.255L60.7912 26.1521L59.1244 26.5064L57.0092 23.8276L54.5091 24.3591L55.1453 27.3522L53.6194 27.6765ZM54.2372 23.0796L56.8312 22.5283C57.2225 22.4451 57.4996 22.2676 57.6627 21.9958C57.8257 21.7239 57.8648 21.3885 57.78 20.9894C57.7251 20.7311 57.6324 20.5259 57.5019 20.3737C57.3697 20.2137 57.2037 20.1059 57.0038 20.0502C56.8038 19.9946 56.5708 19.995 56.3048 20.0516L53.7107 20.603L54.2372 23.0796Z" fill="#000000"></path>
    <path d="M77.481 28.1623L80.8293 20.642L86.6942 23.2533L86.1524 24.4701L81.7126 22.4934L80.8877 24.346L84.8452 26.108L84.3035 27.3249L80.346 25.5629L79.4479 27.58L83.9535 29.586L83.4117 30.8029L77.481 28.1623Z" fill="#000000"></path>
  </symbol>

  <symbol fill="none" xmlns="http://www.w3.org/2000/svg" viewBox="0 0 428 428" id="innovation">
    <path d="M199.348 384.806L306.015 176.806H231.348V43.4731L124.682 251.473H199.348V384.806ZM214.282 427.473C184.77 427.473 157.037 421.873 131.082 410.673C105.126 399.473 82.5482 384.273 63.3482 365.073C44.1482 345.873 28.9482 323.295 17.7482 297.34C6.54824 271.384 0.948242 243.651 0.948242 214.14C0.948242 184.629 6.54824 156.895 17.7482 130.94C28.9482 104.984 44.1482 82.4064 63.3482 63.2064C82.5482 44.0064 105.126 28.8064 131.082 17.6064C157.037 6.40643 184.77 0.806427 214.282 0.806427C243.793 0.806427 271.526 6.40643 297.482 17.6064C323.437 28.8064 346.015 44.0064 365.215 63.2064C384.415 82.4064 399.615 104.984 410.815 130.94C422.015 156.895 427.615 184.629 427.615 214.14C427.615 243.651 422.015 271.384 410.815 297.34C399.615 323.295 384.415 345.873 365.215 365.073C346.015 384.273 323.437 399.473 297.482 410.673C271.526 421.873 243.793 427.473 214.282 427.473Z" fill="#050505"></path>
  </symbol>

  
  <symbol fill="none" xmlns="http://www.w3.org/2000/svg" viewBox="0 0 214 121" id="leftTop">
    <g clip-path="url(#clip0_1_12)">
      <path d="M0 0H190V73C190 86.2548 179.255 97 166 97H0V0Z" fill="#E7E7E9"></path>
      <path fill-rule="evenodd" clip-rule="evenodd" d="M24 97H0V121C0 107.745 10.7452 97 24 97Z" fill="#E7E7E9"></path>
    </g>
    <path fill-rule="evenodd" clip-rule="evenodd" d="M214 0H190V24C190 10.7452 200.745 0 214 0Z" fill="#E7E7E9"></path>
    <defs>
      <clipPath id="clip0_1_12">
        <rect width="190" height="121" fill="white"></rect>
      </clipPath>
    </defs>
  </symbol>
 

  <symbol xmlns="http://www.w3.org/2000/svg" viewBox="0 0 24 24" id="investments">
    <path fill="#050505" d="M5 20v-6h3v6zm6 0V9h3v11zm6 0V4h3v16z"></path>
  </symbol>
   
  <symbol xmlns="http://www.w3.org/2000/svg" viewBox="0 0 24 24" id="experts">
    <path fill="#050505" d="M12 2C6.48 2 2 6.48 2 12c0 1.33.26 2.61.74 3.77L8 10.5l3.3 2.78L14.58 10H13V8h5v5h-2v-1.58L11.41 16l-3.29-2.79l-4.4 4.4A10 10 0 0 0 12 22h8c1.1 0 2-.9 2-2v-8c0-5.52-4.48-10-10-10m7.5 18.5c-.55 0-1-.45-1-1s.45-1 1-1s1 .45 1 1s-.45 1-1 1"></path>
  </symbol>

  <symbol xmlns="http://www.w3.org/2000/svg" viewBox="0 0 24 24" id="timeWhite">
    <path fill="#050505" d="M11.99 2C6.47 2 2 6.48 2 12s4.47 10 9.99 10C17.52 22 22 17.52 22 12S17.52 2 11.99 2m3.3 14.71L11 12.41V7h2v4.59l3.71 3.71z"></path>
  </symbol> 

  <!-- About -->
  
  <symbol xmlns="http://www.w3.org/2000/svg" viewBox="0 0 24 24" id="company">
    <path fill="#050505" d="M5 21q-.825 0-1.412-.587T3 19V5q0-.825.588-1.412T5 3h14q.825 0 1.413.588T21 5v14q0 .825-.587 1.413T19 21zM19 7.25l-6.05 6.8L9 10.1l-4 4v2.85l4-4L13.05 17L19 10.25z"></path>
  </symbol>
     
  <symbol fill="none" xmlns="http://www.w3.org/2000/svg" viewBox="0 0 406 406" id="hardwork">
    <path d="M320.615 277.806L405.949 192.473V0.473114H213.949L128.615 85.8064H320.615V277.806ZM192.615 405.806L277.949 320.473V128.473H85.9486L0.615234 213.806H192.615V405.806Z" fill="#050505"></path>
  </symbol>

  <symbol fill="none" xmlns="http://www.w3.org/2000/svg" viewBox="0 0 428 428" id="research">
    <path d="M184.415 312.273L334.815 161.873L304.948 132.006L184.415 252.54L123.615 191.74L93.7482 221.606L184.415 312.273ZM214.282 427.473C184.77 427.473 157.037 421.873 131.082 410.673C105.126 399.473 82.5482 384.273 63.3482 365.073C44.1482 345.873 28.9482 323.295 17.7482 297.34C6.54824 271.384 0.948242 243.651 0.948242 214.14C0.948242 184.629 6.54824 156.895 17.7482 130.94C28.9482 104.984 44.1482 82.4064 63.3482 63.2064C82.5482 44.0064 105.126 28.8064 131.082 17.6064C157.037 6.40643 184.77 0.806427 214.282 0.806427C243.793 0.806427 271.526 6.40643 297.482 17.6064C323.437 28.8064 346.015 44.0064 365.215 63.2064C384.415 82.4064 399.615 104.984 410.815 130.94C422.015 156.895 427.615 184.629 427.615 214.14C427.615 243.651 422.015 271.384 410.815 297.34C399.615 323.295 384.415 345.873 365.215 365.073C346.015 384.273 323.437 399.473 297.482 410.673C271.526 421.873 243.793 427.473 214.282 427.473Z" fill="#050505"></path>
  </symbol>

  <symbol fill="none" xmlns="http://www.w3.org/2000/svg" viewBox="0 0 287 300" id="veterans">
    <path d="M0.348633 299.473L107.015 150.14L0.348633 0.806427H52.6153L159.282 150.14L52.6153 299.473H0.348633ZM127.282 299.473L233.949 150.14L127.282 0.806427H179.549L286.215 150.14L179.549 299.473H127.282Z" fill="#fff"></path>
  </symbol>


  <symbol fill="none" xmlns="http://www.w3.org/2000/svg" viewBox="0 0 122 122" id="JaneRightBottom">
    <path fill-rule="evenodd" clip-rule="evenodd" d="M98 24L122 24V0C122 13.2548 111.255 24 98 24Z" fill="#050505"></path>
    <g clip-path="url(#clip0_6_94)">
      <path fill-rule="evenodd" clip-rule="evenodd" d="M0 122H24L24 98C24 111.255 13.2548 122 0 122Z" fill="#050505"></path>
      <path d="M24 48C24 34.7452 34.7452 24 48 24H122V122H24V48Z" fill="#050505"></path>
    </g>
    <defs>
      <clipPath id="clip0_6_94">
        <rect width="122" height="98" fill="white" transform="translate(0 24)"></rect>
      </clipPath>
    </defs>
  </symbol>


  <!-- Services -->

  <symbol xmlns="http://www.w3.org/2000/svg" viewBox="0 0 24 24" id="identify">
    <path fill="#050505" d="M15.5 14h-.79l-.28-.27A6.47 6.47 0 0 0 16 9.5A6.5 6.5 0 1 0 9.5 16c1.61 0 3.09-.59 4.23-1.57l.27.28v.79l5 4.99L20.49 19zm-6 0C7.01 14 5 11.99 5 9.5S7.01 5 9.5 5S14 7.01 14 9.5S11.99 14 9.5 14"></path>
    <path fill="#050505" d="M12 10h-2v2H9v-2H7V9h2V7h1v2h2z"></path>
  </symbol>

  <symbol fill="none" xmlns="http://www.w3.org/2000/svg" viewBox="0 0 425 426" id="invest">
    <path d="M212.282 307.006L118.415 213.14L212.282 119.273L306.148 213.14L212.282 307.006ZM242.148 413.14C238.237 417.051 233.615 420.073 228.282 422.206C222.948 424.34 217.615 425.406 212.282 425.406C206.948 425.406 201.615 424.34 196.282 422.206C190.948 420.073 186.326 417.051 182.415 413.14L12.2818 243.006C8.37069 239.095 5.34847 234.473 3.21514 229.14C1.0818 223.806 0.0151367 218.473 0.0151367 213.14C0.0151367 207.806 1.0818 202.473 3.21514 197.14C5.34847 191.806 8.37069 187.184 12.2818 183.273L181.882 13.6731C186.148 9.40644 190.86 6.20644 196.015 4.07311C201.171 1.93977 206.593 0.873108 212.282 0.873108C217.971 0.873108 223.393 1.93977 228.548 4.07311C233.704 6.20644 238.415 9.40644 242.682 13.6731L412.282 183.273C416.193 187.184 419.215 191.806 421.348 197.14C423.482 202.473 424.548 207.806 424.548 213.14C424.548 218.473 423.482 223.806 421.348 229.14C419.215 234.473 416.193 239.095 412.282 243.006L242.148 413.14ZM212.282 366.74L365.882 213.14L212.282 59.5398L58.6818 213.14L212.282 366.74Z" fill="#050505"></path>
  </symbol>

  <symbol xmlns="http://www.w3.org/2000/svg" viewBox="0 0 24 24" id="exit">
    <path fill="#050505" d="M12 2C6.48 2 2 6.48 2 12c0 1.33.26 2.61.74 3.77L8 10.5l3.3 2.78L14.58 10H13V8h5v5h-2v-1.58L11.41 16l-3.29-2.79l-4.4 4.4A10 10 0 0 0 12 22h8c1.1 0 2-.9 2-2v-8c0-5.52-4.48-10-10-10m7.5 18.5c-.55 0-1-.45-1-1s.45-1 1-1s1 .45 1 1s-.45 1-1 1"></path>
  </symbol>
  
  <symbol xmlns="http://www.w3.org/2000/svg" viewBox="0 0 24 24" id="insights">
    <path fill="#050505" d="M11 8v3H8v2h3v3h2v-3h3v-2h-3V8zm2-5.95v3.03c3.39.49 6 3.39 6 6.92c0 .9-.18 1.75-.48 2.54l2.6 1.53c.56-1.24.88-2.62.88-4.07c0-5.18-3.95-9.45-9-9.95M12 19c-3.87 0-7-3.13-7-7c0-3.53 2.61-6.43 6-6.92V2.05c-5.06.5-9 4.76-9 9.95c0 5.52 4.47 10 9.99 10c3.31 0 6.24-1.61 8.06-4.09l-2.6-1.53A6.95 6.95 0 0 1 12 19"></path>
  </symbol>
  
  <symbol xmlns="http://www.w3.org/2000/svg" viewBox="0 0 24 24" id="stocks">
    <path fill="#050505" d="M12 20c-4.41 0-8-3.59-8-8s3.59-8 8-8s8 3.59 8 8s-3.59 8-8 8m0 2c5.52 0 10-4.48 10-10S17.52 2 12 2S2 6.48 2 12s4.48 10 10 10m-1-10v4h2v-4h3l-4-4l-4 4z"></path>
  </symbol>


  <!-- Blog -->
  <symbol xmlns="http://www.w3.org/2000/svg" viewBox="0 0 24 24" id="articles">
    <path fill="#050505" d="M12 .64L8.23 3H5v2L2.97 6.29C2.39 6.64 2 7.27 2 8v10a2 2 0 0 0 2 2h16c1.11 0 2-.89 2-2V8c0-.73-.39-1.36-.97-1.71L19 5V3h-3.23M7 5h10v4.88L12 13L7 9.88M8 6v1.5h8V6M5 7.38v1.25L4 8m15-.62L20 8l-1 .63M8 8.5V10h8V8.5Z"></path>
  </symbol> 

  <!-- Contacts -->
 
  <symbol xmlns="http://www.w3.org/2000/svg" viewBox="0 0 24 24" id="contacts">
    <path fill="#050505" d="M12 2C6.5 2 2 6.5 2 12s4.5 10 10 10s10-4.5 10-10S17.5 2 12 2M8.43 14.44l-1.36-.61c.28-.56.43-1.16.43-1.78c0-.66-.15-1.29-.43-1.88l1.36-.61Q9 10.775 9 12.05c0 .75-.19 1.55-.57 2.39m3.1 1.5l-1.31-.65c.53-1.13.78-2.29.78-3.43c0-1.13-.25-2.17-.78-3.15l1.31-.75c.66 1.16.97 2.46.97 3.9c0 1.47-.31 2.83-.97 4.08m3.15 1.41l-1.37-.7c.79-1.54 1.19-3.08 1.19-4.65s-.4-3.13-1.19-4.69l1.37-.66C15.55 8.43 16 10.22 16 12c0 1.82-.45 3.6-1.32 5.35"></path>
  </symbol> 
 
</svg>