<svg width="44" height="44" viewBox="0 0 44 44" fill="none" xmlns="http://www.w3.org/2000/svg">
<circle cx="22" cy="22" r="21.5" stroke="black"/>
<path d="M25.2449 15.6733C25.2449 15.6383 25.4249 15.5233 25.9999 15.5233H27.8798C28.0266 15.5253 28.1723 15.498 28.3085 15.4431C28.4446 15.3881 28.5684 15.3066 28.6727 15.2032C28.7769 15.0999 28.8596 14.9768 28.9157 14.8412C28.9719 14.7056 29.0005 14.5601 28.9998 14.4133V11.1333C29.0025 10.9872 28.9762 10.8419 28.9225 10.7059C28.8689 10.5699 28.7889 10.4458 28.6871 10.3408C28.5854 10.2358 28.4639 10.152 28.3297 10.094C28.1954 10.0361 28.051 10.0053 27.9048 10.0034H25.1049C24.3278 9.97673 23.5535 10.1084 22.8289 10.3903C22.1043 10.6722 21.4446 11.0985 20.8899 11.6433C20.3527 12.2229 19.9352 12.9029 19.6615 13.6442C19.3878 14.3855 19.2632 15.1737 19.295 15.9633V18.9382H17.12C16.9736 18.9376 16.8284 18.9658 16.6929 19.0212C16.5574 19.0766 16.4341 19.1582 16.3301 19.2613C16.2261 19.3643 16.1434 19.4869 16.0868 19.6219C16.0301 19.7569 16.0007 19.9018 16 20.0482V23.5832C16 23.8762 16.1164 24.1573 16.3236 24.3645C16.5309 24.5717 16.8119 24.6882 17.105 24.6882H19.245V32.3631C19.2409 32.6566 19.3534 32.9398 19.5577 33.1506C19.7619 33.3614 20.0414 33.4828 20.3349 33.488H24.0099C24.1554 33.488 24.2995 33.4593 24.4339 33.4034C24.5683 33.3476 24.6903 33.2658 24.793 33.1626C24.8957 33.0595 24.977 32.9371 25.0322 32.8024C25.0874 32.6678 25.1155 32.5236 25.1149 32.3781V24.7132H27.7298C28.0238 24.7118 28.3054 24.5945 28.5133 24.3866C28.7211 24.1787 28.8385 23.8972 28.8398 23.6032V20.0632C28.8398 19.9177 28.8111 19.7736 28.7552 19.6392C28.6994 19.5048 28.6175 19.3828 28.5144 19.2801C28.4113 19.1774 28.2889 19.0961 28.1542 19.0409C28.0196 18.9857 27.8754 18.9576 27.7298 18.9582H25.1299V16.3533C25.102 16.1203 25.1419 15.8842 25.2449 15.6733Z" stroke="black" stroke-linecap="round"/>
</svg>
