<svg width="44" height="44" viewBox="0 0 44 44" fill="none" xmlns="http://www.w3.org/2000/svg">
<path d="M27.3464 10H17.6536C13.9789 10 11 12.9775 11 16.6504V27.3303C11 31.0032 13.9789 33.9807 17.6536 33.9807H27.3464C31.0211 33.9807 34 31.0032 34 27.3303V16.6504C34 12.9775 31.0211 10 27.3464 10Z" stroke="black" stroke-linecap="round"/>
<path d="M22.5005 27.8479C25.7389 27.8479 28.3642 25.2239 28.3642 21.9869C28.3642 18.75 25.7389 16.126 22.5005 16.126C19.262 16.126 16.6367 18.75 16.6367 21.9869C16.6367 25.2239 19.262 27.8479 22.5005 27.8479Z" stroke="black" stroke-linecap="round"/>
<path d="M29.5196 15.0783C29.9803 15.0783 30.3537 14.7049 30.3537 14.2442C30.3537 13.7836 29.9803 13.4102 29.5196 13.4102C29.059 13.4102 28.6855 13.7836 28.6855 14.2442C28.6855 14.7049 29.059 15.0783 29.5196 15.0783Z" stroke="black"/>
<circle cx="22" cy="22" r="21.5" stroke="black"/>
</svg>
