<svg width="44" height="44" viewBox="0 0 44 44" fill="none" xmlns="http://www.w3.org/2000/svg">
<circle cx="22" cy="22" r="21.5" stroke="black"/>
<path d="M14.98 29V18.5H16.4V29H14.98ZM15.7 16.18C15.4067 16.18 15.16 16.08 14.96 15.88C14.76 15.68 14.66 15.44 14.66 15.16C14.66 14.88 14.76 14.6467 14.96 14.46C15.16 14.26 15.4067 14.16 15.7 14.16C15.9933 14.16 16.24 14.2533 16.44 14.44C16.64 14.6267 16.74 14.86 16.74 15.14C16.74 15.4333 16.64 15.68 16.44 15.88C16.2533 16.08 16.0067 16.18 15.7 16.18ZM25.7111 18.4C26.5644 18.4 27.3111 18.5667 27.9511 18.9C28.6044 19.22 29.1111 19.7133 29.4711 20.38C29.8444 21.0467 30.0311 21.8867 30.0311 22.9V29H28.6111V23.04C28.6111 21.9333 28.3311 21.1 27.7711 20.54C27.2244 19.9667 26.4511 19.68 25.4511 19.68C24.7044 19.68 24.0511 19.8333 23.4911 20.14C22.9444 20.4333 22.5178 20.8667 22.2111 21.44C21.9178 22 21.7711 22.68 21.7711 23.48V29H20.3511V18.5H21.7111V21.38L21.4911 20.84C21.8244 20.08 22.3578 19.4867 23.0911 19.06C23.8244 18.62 24.6978 18.4 25.7111 18.4Z" fill="black"/>
</svg>
