<svg width="44" height="44" viewBox="0 0 44 44" fill="none" xmlns="http://www.w3.org/2000/svg">
<circle cx="22" cy="22" r="21.5" stroke="black"/>
<path d="M19.201 24.7779L29.7083 14.2793M19.4996 25.25L21.8822 30.0129C22.4579 31.1638 22.7458 31.7393 23.1085 31.8937C23.4232 32.0276 23.783 32.0034 24.0769 31.8284C24.4156 31.6269 24.6236 31.0179 25.0397 29.8001L29.5414 16.6227C29.9039 15.5616 30.0851 15.031 29.9611 14.6801C29.8532 14.3747 29.6129 14.1346 29.3074 14.0267C28.9563 13.9027 28.4254 14.0839 27.3638 14.4462L14.1802 18.9458C12.9618 19.3616 12.3526 19.5696 12.1509 19.9081C11.9759 20.2018 11.9517 20.5614 12.0857 20.876C12.2401 21.2385 12.8158 21.5263 13.9674 22.1018L18.7325 24.4832C18.9223 24.5781 19.0171 24.6255 19.0993 24.6888C19.1723 24.745 19.2377 24.8104 19.2939 24.8833C19.3573 24.9655 19.4047 25.0603 19.4996 25.25Z" stroke="black" stroke-linecap="round" stroke-linejoin="round"/>
</svg>
