<svg width="44" height="44" viewBox="0 0 44 44" fill="none" xmlns="http://www.w3.org/2000/svg">
<circle cx="22" cy="22" r="21.5" stroke="black"/>
<path d="M32.0378 14.0886C31.3883 13.6211 29.5782 13 21.9936 13C13.8659 13 12.66 13.7132 12.2731 13.9466C10.2135 15.1839 10.018 20.6617 10 21.7724C10.0247 23.2394 10.2618 28.1201 12.2716 29.3274C12.6578 29.56 13.8569 30.2692 21.9936 30.2692C29.5831 30.2692 31.3909 29.6511 32.0378 29.1854C33.7932 27.9227 33.9951 23.5739 34 21.7533C33.9955 20.2894 33.8419 15.3881 32.0379 14.0886L32.0378 14.0886ZM31.1628 27.9695C30.9017 28.1575 29.4025 28.7707 21.9936 28.7707C14.8308 28.7707 13.3279 28.2148 13.044 28.0436C12.321 27.6098 11.5579 25.3072 11.498 21.7683C11.5572 18.2373 12.3308 15.6597 13.0455 15.2311C13.3302 15.0592 14.8387 14.4988 21.9936 14.4988C29.3965 14.4988 30.8997 15.1161 31.1627 15.3049C31.8045 15.7672 32.4915 18.2006 32.5016 21.7582C32.4915 25.3716 31.8 27.511 31.1628 27.9695ZM26.8795 21.0453L20.1383 16.9085C20.0246 16.84 19.8948 16.8029 19.7621 16.801C19.6294 16.7991 19.4986 16.8324 19.383 16.8977C19.2674 16.9629 19.1711 17.0577 19.1041 17.1724C19.0371 17.287 19.0017 17.4174 19.0017 17.5502V25.8252C19.0018 26.0239 19.0808 26.2144 19.2212 26.3548C19.3617 26.4953 19.5522 26.5743 19.7509 26.5744C19.8872 26.5744 20.021 26.5372 20.1378 26.4669L26.8792 22.3286C27.104 22.1927 27.2414 21.9496 27.2414 21.687C27.2414 21.4244 27.1043 21.1805 26.8796 21.0453H26.8795ZM20.5005 24.498V18.8767L25.0425 21.6869L20.5005 24.498Z" fill="black"/>
</svg>
